<svg id="Layer_1_1_" enable-background="new 0 0 256 256" height="512" viewBox="0 0 256 256" width="512" xmlns="http://www.w3.org/2000/svg"><path d="m197.433 252.091c.223 0 .445-.001.667-.003.312-.003.607-.009.882-.017 3.485-.101 7.089-.204 10.667-.438 1.429-.094 2.862-.1 4.38-.105 3.198-.013 6.505-.025 9.778-.916 6.707-1.823 11.93-6.834 13.97-13.404 1.988-6.403.567-13.303-3.801-18.457-.568-.668-1.387-1.477-2.168-2.154-.682-2.824-1.641-5.583-2.878-8.224l-2.265-4.839-1.324-58.578c-.008-.349-.106-.688-.286-.987l-8.347-13.854-20.907-33.773c-4.966-8.023-11.448-14.771-19.266-20.055l-2.31-1.561c-3.104-2.1-6.729-3.26-10.479-3.355l-1.414-.036c-.159-.01-.319.012-.474.044l-6.739 1.458c-2.419.524-4.883.561-7.317.101l-.318-.06c4.703-6.808 7.515-15.6 7.515-23.914 0-10.021-4.029-18.966-10.299-24.781.201-.841.396-1.763.396-2.727 0-9.597-7.808-17.404-17.404-17.404-9.597 0-17.405 7.808-17.405 17.404 0 1.044.219 1.914.436 2.691-6.293 5.814-10.339 14.775-10.339 24.817 0 8.633 3.031 17.781 8.064 24.688-1.544.198-3.101.151-4.632-.145l-10.79-2.1c-.143-.028-.29-.045-.433-.036-3.75.096-7.374 1.256-10.478 3.355l-2.31 1.561c-7.816 5.283-14.298 12.03-19.265 20.054l-20.92 33.794-8.333 13.833c-.18.299-.278.639-.286.987l-1.324 58.579-2.265 4.838c-.887 1.894-1.624 3.851-2.227 5.847l-.217.187c-1.291 1.11-2.753 2.368-3.76 3.651-4.679 5.967-5.291 15.02-1.488 22.017 4.646 8.548 14.845 11.639 25.156 11.638 6.971 0 13.995-1.413 19.383-3.507l5.185-2.015 50.229-21.015 47.965 20.66c9.64 4.152 19.66 6.256 29.795 6.256zm-72.624-29.059 19.418-7.599c8.677.483 29.892 1.922 36.442 3.44l3.762 27.968c-5.146-.984-10.233-2.536-15.21-4.68zm-41.439-12.391c6.16-3.08 32.015-4.961 41.458-5.425.302-.016.597-.099.862-.244l9.021-4.939c2.213-1.212 3.959-3.165 4.917-5.499l1.243-3.03c.984-2.398 3.196-4.06 5.774-4.336 1.287-.136 2.584.08 3.755.631l12.07 5.681c.354.167.751.226 1.14.17l12.783-1.859c1.378-.203 2.776.009 4.038.606l10.485 4.974c.312.147.465.494.365.823-.089.293-.354.49-.66.49h-15.751c-.264 0-.524.052-.768.153l-25.031 10.407-25.959 10.158-47.637 19.931 2.14-25.814zm-12.426-18.237c-.287.764-.388 1.565-.333 2.352-6.341 1.716-12.846 3.786-19.382 6.204-.504.187-1.081.374-1.666.565-.154.05-.306.101-.46.152l-2.03-2.876 5.525-48.756 17.599-26.072 19.416-18.124 2.904 9.505 2.186 37.493-4.153 24.446-2.549 8.263c-.604.065-1.208.16-1.807.323l-11.482 3.098c-1.73.468-3.139 1.749-3.768 3.427zm33.631-30.196c6.117-8.806 17.884-22.774 23.415-22.774 5.523 0 17.229 13.966 23.309 22.77l3.291-2.273c-1.303-1.888-10.387-14.818-18.814-21.093h22.665l-.817 14.005c-.009.15 0 .302.025.451l3.133 18.445h-65.231l3.133-18.445c.025-.149.034-.301.025-.451l-.816-14.005h22.298c-8.452 6.273-17.59 19.2-18.901 21.088zm62.039-56.156 19.535 17.929 17.594 26.064 5.525 48.756-3.857 5.464-10.44-4.563c.046-.117.101-.229.138-.352.678-2.238-.364-4.592-2.479-5.596l-10.485-4.974c-1.976-.938-4.163-1.267-6.329-.952l-7.436 1.082-2.584-11.541-4.166-24.523 2.187-37.499zm34.781 104.159-3.075 13.139c-.109.465-.131.93-.111 1.389-5.102-3.71-11.545-8.094-15.073-9.325-4.281-1.493-19.944-2.757-30.194-3.448l22.329-9.283h15.352c.322 0 .634-.042.94-.104l11.496 5.024-1.349 1.911c-.15.21-.257.447-.315.697zm-73.501-11.006c-1.303-2.999-3.682-5.474-6.658-6.855-2.691-1.251-5.765-1.573-8.658-.91l-8.804 2.018-7.639-5.686c-1.23-.916-2.603-1.548-4.038-1.918l2.315-7.506c.026-.084.046-.169.061-.255l.4-2.354h66.59l.4 2.354c.006.034.013.068.02.102l2.529 11.296-.781.114-11.527-5.425c-1.833-.862-3.865-1.205-5.883-.988-4.039.432-7.507 3.035-9.05 6.795l-1.243 3.029c-.61 1.489-1.726 2.736-3.138 3.51zm-53.205-5.396c.178-.475.577-.837 1.066-.97l11.481-3.098c2.26-.609 4.633-.158 6.51 1.239l8.38 6.236c.47.35 1.069.477 1.641.345l9.705-2.224c2.029-.466 4.189-.24 6.08.64 2.203 1.023 3.943 2.896 4.819 5.157l-.2.109c-2.865.149-17.298.959-28.938 2.621l-8.6-7.766c-.388-.35-.897-.533-1.419-.514l-8.986.353c-.774.041-1.191-.446-1.34-.652s-.467-.762-.199-1.476zm159.267 42.212c-1.632 5.257-5.818 9.269-11.199 10.731-2.766.752-5.67.764-8.744.775-1.511.006-3.074.013-4.626.113-3.504.229-7.071.332-10.522.432-.251.008-.52.012-.803.015-3.18.032-6.351-.181-9.506-.59l-3.603-26.786c5.693 3.223 14.674 9.987 18.258 12.811l2.475-3.143c-.096-.076-.515-.405-1.167-.909.245-.061.491-.12.73-.218 1.295-.532 2.293-1.541 2.813-2.843l.19-.48c.611-1.531 1.604-2.848 2.866-3.84l-.809 12.517c-.224 3.479 1.032 6.92 3.444 9.438 1.745 1.821 4.106 2.749 6.478 2.749 2.021 0 4.049-.675 5.704-2.046l1.889-1.563c2.146-1.774 3.651-4.25 4.24-6.971.844-3.89 1.134-7.879.9-11.834 1.85 3.575 2.228 7.663.992 11.642zm-71.485-160.682 1.175.029c2.984.077 5.868 1 8.34 2.672l2.31 1.561c7.347 4.965 13.438 11.306 18.105 18.846l20.895 33.753 8.06 13.378 1.321 58.468c.006.278.07.552.188.803l2.443 5.22c3.674 7.847 4.685 16.832 2.848 25.3-.4 1.849-1.423 3.53-2.88 4.736l-1.89 1.563c-1.992 1.649-4.953 1.477-6.743-.39-1.64-1.711-2.493-4.05-2.341-6.414l1.037-16.067c.043-.662-.246-1.303-.771-1.709-.525-.409-1.219-.527-1.847-.321-3.743 1.225-6.727 4.024-8.186 7.685l-.19.48c-.153.384-.451.554-.615.621-.165.068-.496.154-.874-.01-.495-.217-.765-.756-.642-1.281l2.986-12.759 7.775-11.016c.283-.4.409-.892.354-1.379l-5.667-50c-.036-.319-.149-.626-.33-.894l-18-26.666c-.087-.13-.189-.248-.305-.354l-21.133-19.396 1.27-4.221-3.83-1.152-3.048 10.129-5.608-29.961zm-44.138 7.171c2.892 1.514 6.035 2.379 9.359 2.379 3.562 0 6.914-.993 9.974-2.715v2.025c0 5.33-4.337 9.667-9.667 9.667s-9.667-4.337-9.667-9.667v-1.689zm9.36-1.621c-12.32 0-22.044-15.118-23.193-29.182 5.373 1.611 17.294 4.961 23.55 4.961 6.215 0 17.598-3.301 22.834-4.928-1.162 14.054-10.881 29.149-23.191 29.149zm0-72.838c7.355 0 13.341 5.956 13.398 13.299-3.962-2.602-8.531-4.095-13.398-4.095s-9.438 1.493-13.399 4.096c.057-7.344 6.043-13.3 13.399-13.3zm0 13.203c12.444 0 22.641 11.654 23.275 26.264-4.187 1.33-16.75 5.15-22.918 5.15-6.191 0-19.305-3.846-23.632-5.168.642-14.601 10.836-26.246 23.275-26.246zm-18.492 56.339 2.278-.321c.909.943 1.86 1.822 2.855 2.617v4.31c0 7.536 6.131 13.667 13.667 13.667s13.667-6.131 13.667-13.667v-4.823c1.061-.898 2.072-1.886 3.028-2.952l2.368.445c1.878.352 3.77.437 5.656.31l7.103 37.95-1.149 19.709h-61.014l-1.149-19.714 6.866-37.642c1.928.338 3.884.383 5.824.111zm-78.166 132.474 2.443-5.22c.118-.251.182-.524.188-.803l1.321-58.468 8.047-13.357 20.907-33.773c4.667-7.54 10.759-13.881 18.104-18.846l2.311-1.562c2.412-1.631 5.218-2.55 8.128-2.664l6.964 1.355-5.439 29.819-3.096-10.133-3.825 1.168 1.225 4.008-21.01 19.613c-.11.103-.208.218-.293.343l-18 26.666c-.18.268-.293.574-.33.894l-5.667 50c-.055.487.07.979.354 1.379l7.775 11.016 2.986 12.758c.123.526-.147 1.065-.642 1.282-.38.166-.709.078-.874.01-.164-.067-.462-.237-.615-.621l-.192-.481c-1.458-3.659-4.441-6.459-8.184-7.684-.629-.205-1.322-.087-1.847.321-.524.406-.813 1.047-.77 1.709l1.036 16.067c.153 2.364-.7 4.702-2.34 6.414-1.789 1.866-4.752 2.037-6.745.389l-1.889-1.563c-1.457-1.206-2.48-2.888-2.881-4.736-1.835-8.469-.823-17.453 2.85-25.3zm-7.799 28.097c-2.803-5.157-2.589-11.928.399-16.61-.603 4.871-.403 9.842.642 14.661.59 2.721 2.096 5.196 4.24 6.971l1.888 1.563c.106.088.218.165.327.247-3.162-1.501-5.8-3.71-7.496-6.832zm44.712 4.317-5.137 1.995c-6.501 2.526-17.641 4.372-26.764 2.315.021 0 .043.003.064.003 2.37-.001 4.732-.929 6.478-2.749 2.413-2.52 3.668-5.96 3.444-9.439l-.808-12.516c1.261.992 2.254 2.309 2.865 3.84l.192.481c.518 1.301 1.517 2.31 2.812 2.841 1.294.532 2.712.516 3.996-.045 2.262-.989 3.496-3.453 2.934-5.858l-3.075-13.138c-.059-.25-.165-.487-.313-.697l-3.119-4.419c.385-.128.761-.256 1.102-.381 6.666-2.466 13.295-4.569 19.741-6.288 1.076 1.014 2.512 1.574 4.027 1.51l8.172-.32 5.614 5.07c-3.692.68-6.772 1.469-8.59 2.378l-23.662 11.831 1.789 3.578 13.72-6.86-2.11 25.46z"/><path d="m126 167.5h4v2.5h-4z"/></svg>